{
  "accessors": [
    {
      "bufferView": 1,
      "componentType": 5126,
      "count": 2760,
      "max": [
        1.3504589796066284,
        1.340764045715332,
        1.2991069555282593
      ],
      "min": [
        -1.2891349792480469,
        -1.3161710500717163,
        -1.3504719734191895
      ],
      "type": "VEC3"
    },
    {
      "bufferView": 1,
      "byteOffset": 33120,
      "componentType": 5126,
      "count": 2760,
      "max": [
        0.99974852800369263,
        0.99735862016677856,
        0.99591100215911865
      ],
      "min": [
        -0.99992907047271729,
        -0.99997460842132568,
        -0.99939584732055664
      ],
      "type": "VEC3"
    },
    {
      "bufferView": 2,
      "componentType": 5126,
      "count": 2760,
      "max": [
        0.99367541074752808,
        0.99905979633331299,
        0.99981176853179932,
        1
      ],
      "min": [
        -0.99990600347518921,
        -0.99783104658126831,
        -0.99437546730041504,
        1
      ],
      "type": "VEC4"
    },
    {
      "bufferView": 0,
      "componentType": 5125,
      "count": 2760,
      "max": [
        2759
      ],
      "min": [
        0
      ],
      "type": "SCALAR"
    }
  ],
  "asset": {
    "extras": {
      "author": "Pixel Processor (https://sketchfab.com/PolygonProject)",
      "license": "CC-BY-4.0 (http://creativecommons.org/licenses/by/4.0/)",
      "source": "https://sketchfab.com/models/53f0a600338a4212a16bbe1eaaa8684b",
      "title": "Grey Moon"
    },
    "generator": "Sketchfab-3.18.7",
    "version": "2.0"
  },
  "bufferViews": [
    {
      "buffer": 0,
      "byteLength": 11040,
      "byteOffset": 0,
      "name": "floatBufferViews",
      "target": 34963
    },
    {
      "buffer": 0,
      "byteLength": 66240,
      "byteOffset": 11040,
      "byteStride": 12,
      "name": "floatBufferViews",
      "target": 34962
    },
    {
      "buffer": 0,
      "byteLength": 44160,
      "byteOffset": 77280,
      "byteStride": 16,
      "name": "floatBufferViews",
      "target": 34962
    }
  ],
  "buffers": [
    {
      "byteLength": 121440,
      "uri": "scene.bin"
    }
  ],
  "materials": [
    {
      "doubleSided": true,
      "emissiveFactor": [
        0.091670972260000011,
        0.091670972260000011,
        0.091670972260000011
      ],
      "name": "Material",
      "pbrMetallicRoughness": {
        "baseColorFactor": [
          0.51499787799999996,
          0.51499787799999996,
          0.51499787799999996,
          1
        ],
        "metallicFactor": 0,
        "roughnessFactor": 0.95302085879999998
      }
    }
  ],
  "meshes": [
    {
      "primitives": [
        {
          "attributes": {
            "NORMAL": 1,
            "POSITION": 0,
            "TANGENT": 2
          },
          "indices": 3,
          "material": 0,
          "mode": 4
        }
      ]
    }
  ],
  "nodes": [
    {
      "children": [
        1
      ],
      "name": "RootNode (gltf orientation matrix)",
      "rotation": [
        -0.70710678118654746,
        -0,
        -0,
        0.70710678118654757
      ]
    },
    {
      "children": [
        2
      ],
      "name": "RootNode (model correction matrix)"
    },
    {
      "children": [
        3
      ],
      "name": "Grey Moon.obj.cleaner.materialmerger.gles"
    },
    {
      "mesh": 0,
      "name": ""
    }
  ],
  "scene": 0,
  "scenes": [
    {
      "name": "OSG_Scene",
      "nodes": [
        0
      ]
    }
  ]
}

